<?xml version="1.0" standalone="no"?><svg xmlns="http://www.w3.org/2000/svg" viewBox="0 0 1440 320"><path fill="#e0e0e0" fill-opacity="1" d="M0,256L21.8,245.3C43.6,235,87,213,131,186.7C174.5,160,218,128,262,133.3C305.5,139,349,181,393,186.7C436.4,192,480,160,524,149.3C567.3,139,611,149,655,128C698.2,107,742,53,785,48C829.1,43,873,85,916,96C960,107,1004,85,1047,96C1090.9,107,1135,149,1178,154.7C1221.8,160,1265,128,1309,128C1352.7,128,1396,160,1418,176L1440,192L1440,0L1418.2,0C1396.4,0,1353,0,1309,0C1265.5,0,1222,0,1178,0C1134.5,0,1091,0,1047,0C1003.6,0,960,0,916,0C872.7,0,829,0,785,0C741.8,0,698,0,655,0C610.9,0,567,0,524,0C480,0,436,0,393,0C349.1,0,305,0,262,0C218.2,0,175,0,131,0C87.3,0,44,0,22,0L0,0Z"></path></svg>