<?xml version="1.0" standalone="no"?><svg xmlns="http://www.w3.org/2000/svg" viewBox="0 0 1440 320"><path fill="#111111" fill-opacity="1" d="M0,64L21.8,64C43.6,64,87,64,131,64C174.5,64,218,64,262,80C305.5,96,349,128,393,149.3C436.4,171,480,181,524,160C567.3,139,611,85,655,96C698.2,107,742,181,785,181.3C829.1,181,873,107,916,112C960,117,1004,203,1047,202.7C1090.9,203,1135,117,1178,85.3C1221.8,53,1265,75,1309,85.3C1352.7,96,1396,96,1418,96L1440,96L1440,0L1418.2,0C1396.4,0,1353,0,1309,0C1265.5,0,1222,0,1178,0C1134.5,0,1091,0,1047,0C1003.6,0,960,0,916,0C872.7,0,829,0,785,0C741.8,0,698,0,655,0C610.9,0,567,0,524,0C480,0,436,0,393,0C349.1,0,305,0,262,0C218.2,0,175,0,131,0C87.3,0,44,0,22,0L0,0Z"></path></svg>